<?xml version="1.0" standalone="no"?>
<!DOCTYPE svg PUBLIC "-//W3C//DTD SVG 20010904//EN"
 "http://www.w3.org/TR/2001/REC-SVG-20010904/DTD/svg10.dtd">
<svg version="1.0" xmlns="http://www.w3.org/2000/svg"
 width="800.000000pt" height="800.000000pt" viewBox="0 0 800.000000 800.000000"
 preserveAspectRatio="xMidYMid meet">

<g transform="translate(0.000000,800.000000) scale(0.100000,-0.100000)"
fill="#000000" stroke="none">
<path d="M1000 4000 l0 -3000 3000 0 3000 0 0 3000 0 3000 -2160 0 -2160 0 -2
-422 -3 -423 -412 -3 c-327 -2 -413 0 -413 10 0 7 0 199 0 426 l1 412 -426 0
-425 0 0 -3000z m1680 -415 l0 -1735 -22 -5 c-13 -3 -200 -4 -416 -3 l-392 3
0 1733 c0 952 0 1734 0 1737 0 3 187 5 415 5 l415 0 0 -1735z m3475 1315 l0
-415 -154 -200 c-84 -110 -172 -224 -195 -253 -62 -81 -288 -376 -381 -497
-46 -60 -142 -185 -200 -260 -47 -62 -133 -173 -207 -270 -30 -38 -76 -99
-103 -134 -85 -108 -134 -176 -135 -183 0 -5 309 -9 688 -10 l687 -3 0 -415 0
-415 -1285 0 -1285 0 -3 418 -2 417 92 121 c99 128 275 358 305 398 10 13 30
37 44 55 14 17 77 99 139 181 63 83 155 203 204 267 50 65 136 177 191 249 55
72 120 157 145 189 25 32 81 104 125 161 43 57 92 119 107 137 15 18 28 37 28
42 0 6 -253 10 -690 10 l-690 0 0 415 0 415 1288 -2 1287 -3 0 -415z"/>
</g>
</svg>
